<?xml version="1.0" encoding="utf-8"?>
<!-- Generator: Adobe Illustrator 23.0.1, SVG Export Plug-In . SVG Version: 6.00 Build 0)  -->
<svg version="1.1" id="Camada_1" xmlns="http://www.w3.org/2000/svg" xmlns:xlink="http://www.w3.org/1999/xlink" x="0px" y="0px"
	 viewBox="0 0 50 50" style="enable-background:new 0 0 50 50;" xml:space="preserve">
<style type="text/css">
	.st0{fill:#FFFFFF;}
</style>
<g>
	<g>
		<rect x="45.73" y="10.55" class="st0" width="3.67" height="25.83"/>
		<polygon class="st0" points="47.63,42.74 49.4,36.39 45.73,36.39 		"/>
		<g>
			<rect x="45.73" y="6.39" class="st0" width="3.67" height="2.56"/>
			<path class="st0" d="M45.73,6.39h3.67c0,0-0.15-1.39-1.83-1.39C45.88,5,45.73,6.39,45.73,6.39z"/>
		</g>
	</g>
	<g>
		<polygon class="st0" points="38.83,7.67 40.64,8.95 40.64,38.84 22.02,45 20.62,45 20.62,43.02 21.84,43.02 38.68,37.6 		"/>
		<polygon class="st0" points="2.41,7.67 0.6,8.95 0.86,39.56 19.23,45 20.62,45 20.62,43.02 19.41,43.02 2.57,37.6 		"/>
		<polygon class="st0" points="21.47,16.83 37.21,7.67 37.31,36.93 21.47,41.72 		"/>
		<polygon class="st0" points="19.77,16.83 4.04,7.67 3.93,36.93 19.77,41.72 		"/>
	</g>
</g>
</svg>
